<svg width="48" height="48" viewBox="0 0 48 48" fill="none" xmlns="http://www.w3.org/2000/svg">
<path d="M24 3C15.7191 3 9 9.04781 9 16.5C9 28.5 24 45 24 45C24 45 39 28.5 39 16.5C39 9.04781 32.2809 3 24 3ZM24 24C22.8133 24 21.6533 23.6481 20.6666 22.9888C19.6799 22.3295 18.9108 21.3925 18.4567 20.2961C18.0026 19.1997 17.8838 17.9933 18.1153 16.8295C18.3468 15.6656 18.9182 14.5965 19.7574 13.7574C20.5965 12.9182 21.6656 12.3468 22.8295 12.1153C23.9933 11.8838 25.1997 12.0026 26.2961 12.4567C27.3925 12.9108 28.3295 13.6799 28.9888 14.6666C29.6481 15.6533 30 16.8133 30 18C29.9983 19.5908 29.3656 21.1159 28.2407 22.2407C27.1159 23.3656 25.5908 23.9983 24 24Z" fill="#EA4335"/>
</svg>
